<svg width="271" height="88" viewBox="0 0 271 88" fill="none" xmlns="http://www.w3.org/2000/svg">
<path d="M252.214 44.16C238.774 44.16 233.846 38.848 233.846 30.4V27.52H245.686V29.696C245.686 32 246.838 32.704 251.894 32.704C256.438 32.704 258.742 32.512 258.742 29.376C258.742 26.944 257.654 26.304 255.222 26.304H247.478V16.96H253.75C256.246 16.96 256.95 16.384 256.95 14.208C256.95 11.968 255.99 11.456 251.318 11.456C246.646 11.456 245.686 12.16 245.686 14.464V15.808H233.846V13.76C233.846 5.312 240.438 0 252.342 0C262.07 0 268.982 3.584 268.982 11.2C268.982 16.576 266.102 19.84 260.214 20.352V21.184C267.446 21.44 270.966 25.472 270.966 31.424C270.966 39.36 264.886 44.16 252.214 44.16Z" fill="black"/>
<path d="M23.936 86.52H0V20.728H22.4V30.712H23.552C27.136 23.288 35.328 19.448 45.056 19.448C62.08 19.448 68.48 30.84 68.48 44.408V86.52H44.416V49.4C44.416 42.36 42.752 40.056 34.304 40.056C26.368 40.056 23.936 41.976 23.936 49.016V86.52Z" fill="black"/>
<path d="M108.149 87.8C86.389 87.8 73.845 74.872 73.845 53.624C73.845 32.248 86.389 19.448 108.149 19.448C129.909 19.448 142.453 32.248 142.453 53.624C142.453 74.872 129.909 87.8 108.149 87.8ZM108.149 66.936C116.213 66.936 118.517 64.12 118.517 53.624C118.517 43.128 116.213 40.312 108.149 40.312C100.085 40.312 97.781 43.128 97.781 53.624C97.781 64.12 100.085 66.936 108.149 66.936Z" fill="black"/>
<path d="M178.601 87.8C160.809 87.8 152.489 80.632 152.489 64.76V40.44H143.785V20.728H153.257L157.481 7.16H176.553V20.728H193.961V40.44H176.553V61.176C176.553 65.144 177.961 66.168 183.465 66.168H193.961V86.264C190.633 87.032 184.617 87.8 178.601 87.8Z" fill="black"/>
<path d="M224.189 86.52H200.125V20.728H224.189V86.52Z" fill="black"/>
</svg>
