<svg width="140" height="140" viewBox="0 0 140 140" fill="none" xmlns="http://www.w3.org/2000/svg">
<path fill-rule="evenodd" clip-rule="evenodd" d="M128 56.9814C122.522 61.3731 115.568 64 108 64C90.3269 64 76 49.6731 76 32C76 24.4324 78.6269 17.4784 83.0185 12H32C14.3269 12 0 26.3269 0 44V108C0 125.673 14.3269 140 32 140H96C113.673 140 128 125.673 128 108V56.9814Z" fill="black"/>
<path d="M108.117 52.64C94.6768 52.64 89.7488 47.328 89.7488 38.88V36H101.589V38.176C101.589 40.48 102.741 41.184 107.797 41.184C112.341 41.184 114.645 40.992 114.645 37.856C114.645 35.424 113.557 34.784 111.125 34.784H103.381V25.44H109.653C112.149 25.44 112.853 24.864 112.853 22.688C112.853 20.448 111.893 19.936 107.221 19.936C102.549 19.936 101.589 20.64 101.589 22.944V24.288H89.7488V22.24C89.7488 13.792 96.3408 8.48 108.245 8.48C117.973 8.48 124.885 12.064 124.885 19.68C124.885 25.056 122.005 28.32 116.117 28.832V29.664C123.349 29.92 126.869 33.952 126.869 39.904C126.869 47.84 120.789 52.64 108.117 52.64Z" fill="black"/>
</svg>
